<svg xmlns="http://www.w3.org/2000/svg" width="450" height="128" fill="none"><path fill="#fff" d="M50.56 36.944v89.216h-19.2V36.944zm-18.816 79.872v9.344h-10.24v-1.28h1.6640000000000001q3.328 0 5.632-2.304 2.432-2.431 2.56-5.76zm18.432 0h.384q.128 3.328 2.432 5.76 2.432 2.304 5.76 2.304h1.6640000000000001v1.28h-10.24zM14.208 41.424v.384q-5.888.128-9.472 3.712-3.456 3.456-3.456 9.472V56.4L0 56.528V41.424zM0 34.128q1.28.512 3.84 1.024 2.688.512 5.888.896c2.133.256 7.48 0 9.272 0l-19 5.76zM117.52 34l41.856 91.392h-23.04l-26.624-66.688zM90 116.816q-1.024 2.56-.384 4.352t2.176 2.816q1.536.896 3.072.896h1.152v1.28H68.624v-1.28h1.1520000000000001q2.944 0 6.016-1.792 3.2-1.92 5.248-6.272zM117.52 34l.512 15.616-31.744 76.16h-9.344l33.152-75.008q.384-.767 1.28-2.816a70 70 0 0 0 2.048-4.864 106 106 0 0 0 2.048-5.12q.896-2.56.896-3.968zm13.44 61.696v5.376H93.328v-5.376zm1.92 21.12h22.4q2.176 4.352 5.248 6.272 3.072 1.792 6.016 1.792h1.024v1.28h-40.704v-1.28h1.152q2.56 0 4.48-2.048 1.92-2.176.384-6.016M197.11 36.56h16.512q5.76 0 11.264 1.28t9.728 4.096q4.352 2.816 6.912 7.424t2.56 11.392q0 5.376-2.304 10.752-2.176 5.248-6.784 9.088-4.608 3.712-11.904 4.48 4.096 1.28 7.424 4.608 3.456 3.328 5.632 6.656.128.256 1.408 2.304a143 143 0 0 1 3.328 5.12 836 836 0 0 0 4.224 6.016 151 151 0 0 0 3.968 5.376q2.816 3.456 5.12 5.632 2.304 2.047 4.864 3.072 2.56.896 5.888 1.024v1.28h-12.544q-6.912 0-12.544-1.152-5.632-1.28-9.984-4.224t-7.552-7.936q-1.025-1.536-2.304-3.84a3139 3139 0 0 0-2.432-5.12 143 143 0 0 0-2.56-5.12 480 480 0 0 1-2.048-4.608q-.896-2.048-1.28-3.2-1.664-4.096-3.968-6.144-2.176-2.048-4.736-2.432v-1.28h3.968q3.456 0 6.656-1.408 3.328-1.408 5.888-4.608t3.584-8.832q.257-1.152.384-2.688.256-1.536.128-3.456-.384-9.216-4.608-13.44-4.224-4.352-10.496-4.48a31 31 0 0 0-3.968 0h-6.144q0-.128-.384-1.408a34 34 0 0 0-.64-2.816zm1.664 0v89.6h-19.2v-89.6zm-18.816 80.256v9.344h-10.24v-1.28h1.6640000000000001q3.328 0 5.632-2.304 2.432-2.431 2.56-5.76zm0-70.912h-.384q-.128-3.328-2.56-5.632-2.304-2.432-5.632-2.432h-1.6640000000000001v-1.28h10.24zm18.432 70.912h.384q0 3.328 2.432 5.76 2.432 2.304 5.76 2.304h1.536v1.28H198.39zM312.409 34.768q15.36 0 26.624 5.76 11.392 5.632 17.536 16 6.272 10.369 6.272 24.832 0 14.336-6.272 24.832-6.144 10.368-17.536 16.128-11.264 5.632-26.624 5.632t-26.752-5.632q-11.264-5.76-17.408-16.128t-6.144-24.832q0-14.336 6.144-24.704 6.144-10.495 17.408-16.128 11.392-5.76 26.752-5.76m0 87.808q9.088 0 15.616-4.992 6.528-5.12 10.112-14.336t3.584-21.888-3.584-21.888-10.112-14.208q-6.528-5.12-15.616-5.12-8.96 0-15.616 5.12-6.528 4.992-10.112 14.208t-3.584 21.888 3.584 21.888 10.112 14.336q6.656 4.992 15.616 4.992M417.81 36.944v89.216h-19.2V36.944zm31.36 4.48v15.104L448.5 56l-.61-1.008q0-6.015-3.584-9.472-3.456-3.585-9.472-3.712v-.384zM449.5 34v7L433 36.432c1.877 0 4.394-.128 6.442-.384a87 87 0 0 0 5.888-.896c1.792-.341 3.402-.81 4.17-1.152m-50.506 82.816v9.344h-10.24v-1.28h1.6640000000000001q3.328 0 5.632-2.304 2.432-2.431 2.56-5.76zm18.432 0h.384q.128 3.328 2.432 5.76 2.432 2.304 5.76 2.304h1.6640000000000001v1.28h-10.24z"/><path fill="#fff" d="M214 9C140.135 10.32 28 43.5 28 43.5S9.565 47.202 3.5 55L0 59.5v-18S127.116 2.876 211 1c94.417-2.111 238.5 40 238.5 40v17l-5-8-24.5-6.5S295.748 7.54 214 9"/><path fill="#fff" d="M129.5 26c-8.835-5.756-28.5-1-28.5-1l27-10 10.5 2.5s4.387 14.999-1.5 15c-3.876 0-3.681-4.012-7.5-6.5M301.5 24c8.835-5.756 43.5 1 43.5 1l-27.929-10-24.571.5s-10.611 11.08-5.5 14c3.5 2 10.681-3.012 14.5-5.5"/></svg>